<svg xmlns="http://www.w3.org/2000/svg" version="1.1" xmlns:xlink="http://www.w3.org/1999/xlink" xmlns:svgjs="http://svgjs.dev/svgjs" width="1440" height="560" preserveAspectRatio="none" viewBox="0 0 1440 560"><g clip-path="url(&quot;#SvgjsClipPath1001&quot;)" fill="none"><rect width="1440" height="560" x="0" y="0" fill="#0e2a47"></rect><circle r="93.335" cx="-46.68" cy="-33.33" stroke="#365aa3" stroke-opacity="0.25" stroke-width="2"></circle><circle r="93.335" cx="431.01" cy="295.31" stroke="#365aa3" stroke-opacity="0.25" stroke-width="2"></circle><circle r="93.335" cx="830.94" cy="704.04" stroke="#365aa3" stroke-opacity="0.25" stroke-width="2"></circle><circle r="103.405" cx="271.31" cy="542.36" stroke="#365aa3" stroke-opacity="0.25" stroke-width="2"></circle><circle r="159.855" cx="121.43" cy="448.83" stroke="#365aa3" stroke-opacity="0.25" stroke-width="2"></circle><circle r="96.385" cx="1205.48" cy="392.71" stroke="#365aa3" stroke-opacity="0.25" stroke-width="2"></circle><circle r="100.005" cx="943.08" cy="356.62" stroke="#365aa3" stroke-opacity="0.25" stroke-width="2"></circle><circle r="176.065" cx="1293.45" cy="556.34" stroke="#365aa3" stroke-opacity="0.25" stroke-width="2"></circle><circle r="114.935" cx="692.63" cy="259.76" stroke="#365aa3" stroke-opacity="0.25" stroke-width="2"></circle><circle r="70.375" cx="340.55" cy="288.88" stroke="#365aa3" stroke-opacity="0.25" stroke-width="2"></circle><circle r="77.065" cx="953.27" cy="493.96" stroke="#365aa3" stroke-opacity="0.25" stroke-width="2"></circle><circle r="159.245" cx="537.75" cy="450.88" stroke="#365aa3" stroke-opacity="0.25" stroke-width="2"></circle><circle r="98.005" cx="371.68" cy="474.99" stroke="#365aa3" stroke-opacity="0.25" stroke-width="2"></circle><circle r="52.18" cx="1238.65" cy="310.33" stroke="#365aa3" stroke-opacity="0.25" stroke-width="2"></circle><circle r="65.345" cx="590" cy="402.35" stroke="#365aa3" stroke-opacity="0.25" stroke-width="2"></circle><circle r="145.69" cx="1073.74" cy="483.15" stroke="#365aa3" stroke-opacity="0.25" stroke-width="2"></circle><circle r="86.14" cx="31.91" cy="271.51" stroke="#365aa3" stroke-opacity="0.25" stroke-width="2"></circle><circle r="69.125" cx="868.07" cy="277.14" stroke="#365aa3" stroke-opacity="0.25" stroke-width="2"></circle><circle r="184.225" cx="729.45" cy="178.13" stroke="#365aa3" stroke-opacity="0.25" stroke-width="2"></circle><circle r="76.705" cx="853.43" cy="360.42" stroke="#365aa3" stroke-opacity="0.25" stroke-width="2"></circle><circle r="132.97" cx="581.82" cy="10.8" stroke="#365aa3" stroke-opacity="0.25" stroke-width="2"></circle><circle r="96.375" cx="861.08" cy="427.22" stroke="#365aa3" stroke-opacity="0.25" stroke-width="2"></circle><circle r="158.265" cx="206.92" cy="546.11" stroke="#365aa3" stroke-opacity="0.25" stroke-width="2"></circle><circle r="135.89" cx="371.86" cy="512.16" stroke="#365aa3" stroke-opacity="0.25" stroke-width="2"></circle><circle r="59.97" cx="626.67" cy="329.53" stroke="#365aa3" stroke-opacity="0.25" stroke-width="2"></circle><circle r="92.7" cx="739.29" cy="543.14" stroke="#365aa3" stroke-opacity="0.25" stroke-width="2"></circle><circle r="147.9" cx="708.64" cy="300.32" stroke="#365aa3" stroke-opacity="0.25" stroke-width="2"></circle><circle r="86.29" cx="243.66" cy="139.99" stroke="#365aa3" stroke-opacity="0.25" stroke-width="2"></circle><circle r="78.165" cx="655.23" cy="460.17" stroke="#365aa3" stroke-opacity="0.25" stroke-width="2"></circle><circle r="65.5" cx="1222.75" cy="400.84" stroke="#365aa3" stroke-opacity="0.25" stroke-width="2"></circle><circle r="65.725" cx="467.77" cy="352.73" stroke="#365aa3" stroke-opacity="0.25" stroke-width="2"></circle><circle r="82.57" cx="384.36" cy="207.52" stroke="#365aa3" stroke-opacity="0.25" stroke-width="2"></circle><circle r="83.545" cx="1049.42" cy="88.7" stroke="#365aa3" stroke-opacity="0.25" stroke-width="2"></circle><circle r="130.095" cx="758.61" cy="81.36" stroke="#365aa3" stroke-opacity="0.25" stroke-width="2"></circle><circle r="179.08" cx="922.62" cy="373.72" stroke="#365aa3" stroke-opacity="0.25" stroke-width="2"></circle><circle r="108.17" cx="69.91" cy="377.33" stroke="#365aa3" stroke-opacity="0.25" stroke-width="2"></circle><circle r="51.145" cx="8.47" cy="530.58" stroke="#365aa3" stroke-opacity="0.25" stroke-width="2"></circle><circle r="56.1" cx="890.62" cy="231.92" stroke="#365aa3" stroke-opacity="0.25" stroke-width="2"></circle><circle r="73.13" cx="609.26" cy="211.53" stroke="#365aa3" stroke-opacity="0.25" stroke-width="2"></circle><circle r="136.16" cx="183.89" cy="395.78" stroke="#365aa3" stroke-opacity="0.25" stroke-width="2"></circle></g><defs><clipPath id="SvgjsClipPath1001"><rect width="1440" height="560" x="0" y="0"></rect></clipPath></defs></svg>